<?xml version="1.0" encoding="UTF-8" standalone="no"?>
<!-- Created with Inkscape (http://www.inkscape.org/) -->

<svg
   xmlns:dc="http://purl.org/dc/elements/1.1/"
   xmlns:cc="http://creativecommons.org/ns#"
   xmlns:rdf="http://www.w3.org/1999/02/22-rdf-syntax-ns#"
   xmlns:svg="http://www.w3.org/2000/svg"
   xmlns="http://www.w3.org/2000/svg"
   xmlns:sodipodi="http://sodipodi.sourceforge.net/DTD/sodipodi-0.dtd"
   xmlns:inkscape="http://www.inkscape.org/namespaces/inkscape"
   id="svg2"
   version="1.1"
   inkscape:version="0.91 r13725"
   xml:space="preserve"
   width="508.39999"
   height="615.26685"
   viewBox="0 0 508.39999 615.26685"
   sodipodi:docname="PME_lider.svg"><metadata
     id="metadata8"><rdf:RDF><cc:Work
         rdf:about=""><dc:format>image/svg+xml</dc:format><dc:type
           rdf:resource="http://purl.org/dc/dcmitype/StillImage" /><dc:title></dc:title></cc:Work></rdf:RDF></metadata><defs
     id="defs6"><clipPath
       clipPathUnits="userSpaceOnUse"
       id="clipPath16"><path
         d="m 0,492.214 406.72,0 L 406.72,0 0,0 0,492.214 Z"
         id="path18"
         inkscape:connector-curvature="0" /></clipPath></defs><sodipodi:namedview
     pagecolor="#ffffff"
     bordercolor="#666666"
     borderopacity="1"
     objecttolerance="10"
     gridtolerance="10"
     guidetolerance="10"
     inkscape:pageopacity="0"
     inkscape:pageshadow="2"
     inkscape:window-width="702"
     inkscape:window-height="480"
     id="namedview4"
     showgrid="false"
     fit-margin-top="0"
     fit-margin-left="0"
     fit-margin-right="0"
     fit-margin-bottom="0"
     inkscape:zoom="0.38357299"
     inkscape:cx="254.2"
     inkscape:cy="307.63374"
     inkscape:window-x="0"
     inkscape:window-y="0"
     inkscape:window-maximized="0"
     inkscape:current-layer="g10" /><g
     id="g10"
     inkscape:groupmode="layer"
     inkscape:label="PME_lider"
     transform="matrix(1.25,0,0,-1.25,0,615.26687)"><g
       id="g12"><g
         id="g14"
         clip-path="url(#clipPath16)"><g
           id="g20"
           transform="translate(90,20.3174)"><path
             d="m 0,0 -0.17,0 -10.204,39.492 -22.724,0 0,-59.235 14.513,0 0,44.965 0.169,0 12.439,-44.965 11.778,0 12.445,44.965 0.168,0 0,-44.965 14.518,0 0,59.235 -22.735,0 L 0,0 Z m 59.053,4.812 29.042,0 0,11.939 -29.042,0 0,10.376 31.779,0 0,12.365 -47.208,0 0,-59.235 48.039,0 0,13.269 -32.61,0 0,11.286 z m -123.252,7.133 -10.37,0 0,15.182 10.37,0 c 4.733,0 8.288,-2.242 8.288,-7.798 0,-5.394 -3.468,-7.384 -8.288,-7.384 m 2.328,27.547 -28.129,0 0,-59.235 15.431,0 0,19.743 12.698,0 c 13.02,0 21.398,5.72 21.398,20.401 0,14.019 -10.367,19.091 -21.398,19.091 m 209.117,-7.608 5.88,0 13.967,12.974 -10.76,0 -9.087,-12.974 z m 91.83,-24.076 c 0.828,3.345 2.277,5.843 4.351,7.5 2.074,1.653 4.813,2.487 8.225,2.487 3.602,0 6.439,-0.859 8.51,-2.561 2.07,-1.699 3.312,-4.175 3.73,-7.426 l -24.816,0 z m 12.382,18.794 c -6.976,0 -12.689,-2.291 -17.132,-6.867 -4.442,-4.578 -6.666,-10.424 -6.666,-17.532 0,-7.401 2.15,-13.314 6.453,-17.75 4.301,-4.434 10.084,-6.651 17.349,-6.651 5.067,0 9.481,1.117 13.243,3.351 3.757,2.236 6.914,5.63 9.461,10.195 l -8.747,4.889 c -1.662,-3.132 -3.601,-5.404 -5.836,-6.809 -2.228,-1.408 -5.017,-2.113 -8.365,-2.113 -3.763,0 -6.771,1.192 -9.035,3.57 -2.262,2.379 -3.523,5.689 -3.779,9.938 l 36.23,0 0,1.961 c 0,7.522 -2.037,13.371 -6.115,17.547 -4.078,4.183 -9.764,6.271 -17.061,6.271 m 59.938,-0.541 c -1.42,0.358 -2.863,0.541 -4.326,0.541 -2.705,0 -4.975,-0.722 -6.803,-2.155 -1.836,-1.432 -3.306,-3.646 -4.422,-6.645 l 0,7.268 -10.392,0 0,-45.387 10.392,0 0,19.9 c 0,6.502 0.75,11.136 2.242,13.896 1.5,2.753 3.969,4.133 7.407,4.133 1.273,0 2.429,-0.15 3.467,-0.451 1.033,-0.305 1.996,-0.774 2.886,-1.412 l 3.727,8.751 c -1.369,0.686 -2.764,1.205 -4.178,1.561 M 203.07,-8.743 c -2.322,-2.824 -5.359,-4.233 -9.115,-4.233 -3.948,0 -7.002,1.307 -9.164,3.924 -2.161,2.62 -3.245,6.337 -3.245,11.16 0,4.786 1.118,8.527 3.364,11.224 2.246,2.701 5.32,4.05 9.238,4.05 3.908,0 6.957,-1.311 9.135,-3.927 2.179,-2.62 3.271,-6.274 3.271,-10.968 0,-4.659 -1.162,-8.404 -3.484,-11.23 m 3.197,26.363 c -1.211,2.894 -3.131,5.114 -5.756,6.659 -2.629,1.548 -5.789,2.323 -9.482,2.323 -6.049,0 -10.949,-2.229 -14.711,-6.677 -3.756,-4.449 -5.633,-10.292 -5.633,-17.532 0,-7.62 1.834,-13.623 5.514,-18.013 3.677,-4.382 8.719,-6.578 15.117,-6.578 3.182,0 6.012,0.64 8.478,1.912 2.465,1.271 4.624,3.22 6.473,5.829 l 0,-5.86 10.391,0 0,74.105 -10.391,0 0,-36.168 z m -83.103,-37.937 10.389,0 0,74.105 -10.389,0 0,-74.105 z m 25.669,0 10.389,0 0,45.332 -10.389,0 0,-45.332 z"
             style="fill:#241d10;fill-opacity:1;fill-rule:nonzero;stroke:none"
             id="path22"
             inkscape:connector-curvature="0" /></g><g
           id="g24"
           transform="translate(406.7202,123.3115)"><path
             d="m 0,0 c 0,-20.885 -16.93,-37.818 -37.822,-37.818 l -331.076,0 c -20.891,0 -37.822,16.933 -37.822,37.818 l 0,331.078 c 0,20.891 16.931,37.824 37.822,37.824 l 331.076,0 C -16.93,368.902 0,351.969 0,331.078 L 0,0 Z"
             style="fill:#1476c6;fill-opacity:1;fill-rule:nonzero;stroke:none"
             id="path26"
             inkscape:connector-curvature="0" /></g><g
           id="g28"
           transform="translate(292.1597,466.0772)"><path
             d="m 0,0 c -25.425,-48.958 -48.899,-98.939 -74.089,-148.027 -16.485,-32.128 -33.267,-64.127 -51.061,-95.553 -7.218,-12.749 -14.62,-25.404 -22.483,-37.768 -3.111,-4.891 -6.313,-9.725 -9.661,-14.458 -1.354,-1.913 -2.744,-3.801 -4.167,-5.665 5.539,7.254 0.397,0.574 -1.161,-1.225 -1.083,-1.251 -2.213,-2.46 -3.396,-3.617 -0.501,-0.492 -1.022,-0.962 -1.551,-1.422 -2.821,-2.453 5.244,3.812 2.321,1.789 -4.726,-3.273 -9.771,-6.081 -14.918,-8.627 -1.278,-0.633 -2.578,-1.221 -3.877,-1.809 -4.53,-2.05 4.369,1.753 -0.221,-0.074 -2.995,-1.192 -6.056,-2.212 -9.139,-3.152 -2.547,-0.777 -5.134,-1.413 -7.731,-1.995 -1.724,-0.385 -10.442,-1.59 -3.176,-0.709 -2.355,-0.286 -4.728,-0.409 -7.099,-0.458 -2.086,-0.045 -10.981,0.966 -3.144,-0.168 -1.969,0.285 -3.898,0.78 -5.794,1.373 -1.582,0.494 -4.718,2.152 1.543,-0.726 -0.811,0.373 -1.579,0.829 -2.344,1.287 -3.106,1.86 4.192,-3.517 1.456,-1.207 -0.651,0.55 -1.226,1.181 -1.798,1.809 4.2,-4.621 2.285,-3.088 1.278,-1.458 -2.598,4.202 1.415,-4.181 0.32,-0.937 -0.302,0.898 -0.485,1.83 -0.67,2.756 1.225,-6.14 0.461,-3.87 0.37,-2.072 -0.047,0.938 -0.017,1.879 0.042,2.815 0.238,3.776 -1.194,-6.813 -0.299,-2.398 0.209,1.027 0.518,2.031 0.865,3.02 1.215,3.463 -2.845,-6.055 -0.839,-2.106 0.416,0.817 0.898,1.599 1.398,2.367 2.444,3.756 -3.681,-4.48 -1.286,-1.59 0.73,0.883 1.528,1.707 2.345,2.509 0.731,0.717 1.506,1.389 2.291,2.046 3,2.513 -5.221,-3.814 -1.242,-0.999 2.039,1.442 4.202,2.703 6.404,3.876 1.087,0.58 2.197,1.117 3.311,1.643 0.575,0.271 1.155,0.53 1.736,0.787 2.879,1.281 -5.537,-2.301 -2.596,-1.091 2.751,1.131 5.563,2.112 8.395,3.022 6.058,1.946 12.265,3.417 18.503,4.655 3.266,0.648 6.55,1.202 9.84,1.707 0.848,0.131 1.697,0.253 2.545,0.375 3.664,0.528 -5.802,-0.762 -2.112,-0.279 2.049,0.269 4.101,0.505 6.155,0.731 15.798,1.731 31.724,2.243 47.608,2.069 16.87,-0.185 33.73,-1.278 50.499,-3.109 2.008,-0.22 4.015,-0.457 6.021,-0.7 1.837,-0.222 9.377,-1.228 1.421,-0.154 4.267,-0.576 8.524,-1.22 12.774,-1.909 7.914,-1.282 15.792,-2.791 23.622,-4.513 9.294,-2.043 18.51,-4.456 27.587,-7.311 4.144,-1.305 8.248,-2.732 12.311,-4.268 1.919,-0.726 3.822,-1.492 5.715,-2.28 -7.939,3.304 -0.245,0.042 1.698,-0.877 3.264,-1.541 6.456,-3.235 9.563,-5.071 1.431,-0.846 2.831,-1.744 4.212,-2.67 1.766,-1.184 6.893,-5.238 0.022,0.161 2.226,-1.75 4.306,-3.683 6.2,-5.786 3.619,-4.02 -3.187,4.547 -0.595,0.832 0.774,-1.111 1.447,-2.287 2.051,-3.497 5.08,-10.187 19.258,-12.962 28.59,-7.497 10.302,6.036 12.58,18.397 7.496,28.59 -5.315,10.657 -15.394,18.761 -25.257,24.962 -11.598,7.291 -24.766,12.359 -37.714,16.669 -31.453,10.472 -64.917,15.412 -97.838,18.304 -33.736,2.963 -67.588,2.619 -101.139,-2.098 -12.703,-1.785 -25.415,-4.448 -37.428,-9.024 -11.736,-4.472 -23.769,-10.284 -32.233,-19.887 -10.573,-11.996 -14.25,-26.342 -11.123,-42.01 5.091,-25.506 33.674,-34.406 56.363,-32.006 23.448,2.48 48.156,11.413 66.292,26.816 7.441,6.319 13.131,15.053 18.641,23.003 16.844,24.306 31.079,50.516 45.198,76.459 17.693,32.51 34.628,65.43 51.327,98.458 19.871,39.3 38.643,79.193 58.938,118.273 5.25,10.11 2.687,22.625 -7.496,28.59 C 19.137,13.034 5.244,10.099 0,0"
             style="fill:#ffffff;fill-opacity:1;fill-rule:nonzero;stroke:none"
             id="path30"
             inkscape:connector-curvature="0" /></g></g></g></g></svg>