<?xml version="1.0" encoding="UTF-8" standalone="no"?>
<!-- Created with Inkscape (http://www.inkscape.org/) -->

<svg
   xmlns:dc="http://purl.org/dc/elements/1.1/"
   xmlns:cc="http://creativecommons.org/ns#"
   xmlns:rdf="http://www.w3.org/1999/02/22-rdf-syntax-ns#"
   xmlns:svg="http://www.w3.org/2000/svg"
   xmlns="http://www.w3.org/2000/svg"
   xmlns:sodipodi="http://sodipodi.sourceforge.net/DTD/sodipodi-0.dtd"
   xmlns:inkscape="http://www.inkscape.org/namespaces/inkscape"
   width="149.31355mm"
   height="29.024382mm"
   viewBox="0 0 529.06377 102.84229"
   id="svg4126"
   version="1.1"
   inkscape:version="0.91 r13725"
   sodipodi:docname="Logo_PT.svg">
  <defs
     id="defs4128" />
  <sodipodi:namedview
     id="base"
     pagecolor="#ffffff"
     bordercolor="#666666"
     borderopacity="1.0"
     inkscape:pageopacity="0.0"
     inkscape:pageshadow="2"
     inkscape:zoom="1.4"
     inkscape:cx="116.08877"
     inkscape:cy="19.84603"
     inkscape:document-units="px"
     inkscape:current-layer="layer1"
     showgrid="false"
     inkscape:window-width="1680"
     inkscape:window-height="987"
     inkscape:window-x="-8"
     inkscape:window-y="-8"
     inkscape:window-maximized="1"
     fit-margin-top="0"
     fit-margin-left="0"
     fit-margin-right="0"
     fit-margin-bottom="0" />
  <metadata
     id="metadata4131">
    <rdf:RDF>
      <cc:Work
         rdf:about="">
        <dc:format>image/svg+xml</dc:format>
        <dc:type
           rdf:resource="http://purl.org/dc/dcmitype/StillImage" />
        <dc:title></dc:title>
      </cc:Work>
    </rdf:RDF>
  </metadata>
  <g
     inkscape:label="Camada 1"
     inkscape:groupmode="layer"
     id="layer1"
     transform="translate(-18.325264,-929.5125)">
    <g
       id="g20"
       transform="matrix(1.25,0,0,-1.25,547.38901,991.83346)">
      <path
         d="m 0,0 -9.229,0 -8.164,9.82 -8.164,-9.82 -9.229,0 12.778,15.44 -12.423,15.028 9.228,0 7.81,-9.466 7.808,9.466 9.23,0 L -12.779,15.44 0,0 Z m -40.97,9.643 0,11.182 c 0,1.696 -0.946,2.543 -2.84,2.543 l -17.866,0 c -1.893,0 -2.839,-0.847 -2.839,-2.543 l 0,-11.182 c 0,-1.696 0.946,-2.544 2.839,-2.544 l 17.866,0 c 1.894,0 2.84,0.848 2.84,2.544 m 7.099,0 c 0,-2.76 -0.965,-5.067 -2.899,-6.922 C -38.702,0.906 -41.049,0 -43.81,0 l -17.866,0 c -2.761,0 -5.108,0.906 -7.04,2.721 -1.932,1.855 -2.899,4.162 -2.899,6.922 l 0,11.182 c 0,2.761 0.967,5.048 2.899,6.862 1.932,1.854 4.279,2.781 7.04,2.781 l 17.866,0 c 2.761,0 5.108,-0.927 7.04,-2.781 1.934,-1.814 2.899,-4.101 2.899,-6.862 l 0,-11.182 z M -74.572,0 l -7.101,0 -18.28,20.528 0,-20.528 -7.098,0 0,30.468 7.098,0 18.28,-20.351 0,20.351 7.101,0 0,-30.468 z m -35.438,0 -7.099,0 0,30.468 7.099,0 0,-30.468 z"
         style="fill:#258cd4;fill-opacity:1;fill-rule:nonzero;stroke:none"
         id="path22"
         inkscape:connector-curvature="0" />
    </g>
    <path
       d="m 145.98127,991.83316 -8.8725,0 0,-38.08504 8.8725,0 0,38.08504 z m 53.09625,0 -8.87375,0 0,-23.22129 -15.825,22.55749 -15.825,-22.55749 0,23.22129 -8.875,0 0,-38.08504 9.3175,0 15.3825,21.965 15.455,-21.965 9.24375,0 0,38.08504 z m 42.4475,-25.21754 c 0,-2.6625 -0.64125,-3.9925 -1.9225,-3.9925 l -27.95375,0 0,7.9125 27.95375,0 c 1.28125,0 1.9225,-1.3075 1.9225,-3.92 m 8.87375,0 c 0,3.4025 -0.93625,6.31125 -2.81,8.72625 -2.0225,2.71249 -4.68375,4.06749 -7.98625,4.06749 l -27.95375,0 0,12.4238 -8.87375,0 0,-38.08504 36.8275,0 c 3.3025,0 5.96375,1.35625 7.98625,4.06875 1.87375,2.46375 2.81,5.3975 2.81,8.79875 m 147.42374,-3.9925 -17.1575,0 0,29.21004 -8.87375,0 0,-29.21004 -17.155,0 0,-8.875 43.18625,0 0,8.875 z m -105.42125,17.15624 0,-13.97749 c 0,-2.12 -1.18125,-3.17875 -3.54875,-3.17875 l -22.3325,0 c -2.3675,0 -3.55,1.05875 -3.55,3.17875 l 0,13.97749 c 0,2.12 1.1825,3.18 3.55,3.18 l 22.3325,0 c 2.3675,0 3.54875,-1.06 3.54875,-3.18 m 8.87375,0 c 0,3.4513 -1.20625,6.335 -3.62375,8.6525 -2.415,2.2688 -5.34875,3.4013 -8.79875,3.4013 l -22.3325,0 c -3.4525,0 -6.38375,-1.1325 -8.80125,-3.4013 -2.415,-2.3175 -3.62374,-5.2012 -3.62374,-8.6525 l 0,-13.97749 c 0,-3.45125 1.20874,-6.31 3.62374,-8.5775 2.4175,-2.3175 5.34875,-3.47625 8.80125,-3.47625 l 22.3325,0 c 3.45,0 6.38375,1.15875 8.79875,3.47625 2.4175,2.2675 3.62375,5.12625 3.62375,8.5775 l 0,13.97749 z m 42.44625,-13.16374 c 0,-2.6625 -0.64,-3.9925 -1.92125,-3.9925 l -27.95375,0 0,7.9125 27.95375,0 c 1.28125,0 1.92125,-1.3075 1.92125,-3.92 m 8.87625,0 c 0,3.4025 -0.9375,6.31125 -2.81125,8.72625 -2.02,2.71249 -4.68375,4.06749 -7.98625,4.06749 l -0.6325,0 11.43,12.4238 -11.955,0 -11.43,-12.4238 -15.36625,0 0,12.4238 -8.8725,0 0,-38.08504 36.82625,0 c 3.3025,0 5.96625,1.35625 7.98625,4.06875 1.87375,2.46375 2.81125,5.3975 2.81125,8.79875"
       style="fill:#57768a;fill-opacity:1;fill-rule:nonzero;stroke:none"
       id="path24"
       inkscape:connector-curvature="0" />
    <g
       id="g26"
       transform="matrix(1.25,0,0,-1.25,98.816638,934.69162)">
      <path
         d="M 0,0 -21.418,0 C -15.212,-10.465 -7.759,-19.351 0,-27.091 L 0,0 Z"
         style="fill:#258cd4;fill-opacity:1;fill-rule:nonzero;stroke:none"
         id="path28"
         inkscape:connector-curvature="0" />
    </g>
    <g
       id="g30"
       transform="matrix(1.25,0,0,-1.25,22.234014,988.78246)">
      <path
         d="m 0,0 c -1.04,0.998 -2.082,2.035 -3.127,3.112 l 0,-3.139 C -2.111,-0.993 -1.068,-1.95 0,-2.893 l 0,-14.793 21.939,0 c 2.787,-1.319 5.626,-2.444 8.491,-3.333 -2.146,1.057 -4.275,2.16 -6.394,3.333 C 15.983,-13.23 8.083,-7.768 0,0"
         style="fill:#258cd4;fill-opacity:1;fill-rule:nonzero;stroke:none"
         id="path32"
         inkscape:connector-curvature="0" />
    </g>
    <g
       id="g34"
       transform="matrix(1.25,0,0,-1.25,98.816638,1001.9075)">
      <path
         d="m 0,0 0,3.509 0,14.185 c 2.005,-1.083 4.043,-2.056 6.107,-2.9 -2.056,1.245 -4.089,2.535 -6.107,3.895 -11.626,7.835 -22.704,17.973 -34.001,35.084 -0.883,1.338 -1.768,2.718 -2.654,4.143 l -2.449,0 c 0.71,-1.342 1.5,-2.727 2.362,-4.143 l -10.814,0 C -35.172,30.094 -17.681,13.18 0,0"
         style="fill:#258cd4;fill-opacity:1;fill-rule:nonzero;stroke:none"
         id="path36"
         inkscape:connector-curvature="0" />
    </g>
    <g
       id="g38"
       transform="matrix(1.25,0,0,-1.25,22.234014,944.57687)">
      <path
         d="M 0,0 0,-20.486 C 9.883,-34.097 21.859,-44.498 33.524,-53.05 l 23.003,0 c 3.356,-1.425 6.76,-2.627 10.186,-3.56 C 44.788,-46.747 24.072,-33.07 0,0"
         style="fill:#258cd4;fill-opacity:1;fill-rule:nonzero;stroke:none"
         id="path40"
         inkscape:connector-curvature="0" />
    </g>
    <g
       id="g42"
       transform="matrix(1.25,0,0,-1.25,241.50715,1025.7135)">
      <path
         d="m 0,0 0,1.328 c -0.845,-0.966 -2.028,-1.473 -3.356,-1.473 -1.281,0 -2.344,0.387 -3.068,1.111 -0.845,0.821 -1.207,1.956 -1.207,3.332 l 0,7.584 1.739,0 0,-7.317 c 0,-2.101 1.11,-3.165 2.898,-3.165 1.787,0 2.97,1.087 2.97,3.165 l 0,7.317 1.738,0 L 1.714,0 0,0 Z"
         style="fill:#258cd4;fill-opacity:1;fill-rule:nonzero;stroke:none"
         id="path44"
         inkscape:connector-curvature="0" />
    </g>
    <g
       id="g46"
       transform="matrix(1.25,0,0,-1.25,268.14739,1025.7135)">
      <path
         d="m 0,0 0,7.317 c 0,2.101 -1.134,3.163 -2.92,3.163 -1.739,0 -2.971,-1.087 -2.971,-2.969 l 0,-7.511 -1.739,0 0,7.317 c 0,2.101 -1.135,3.163 -2.921,3.163 -1.787,0 -2.97,-1.087 -2.97,-3.163 l 0,-7.317 -1.739,0 0,11.882 1.739,0 0,-1.305 c 0.844,0.966 2.028,1.449 3.356,1.449 1.642,0 2.922,-0.676 3.647,-1.98 0.918,1.304 2.245,1.98 3.912,1.98 1.279,0 2.341,-0.411 3.065,-1.111 0.846,-0.821 1.28,-1.932 1.28,-3.308 L 1.739,0 0,0 Z"
         style="fill:#258cd4;fill-opacity:1;fill-rule:nonzero;stroke:none"
         id="path48"
         inkscape:connector-curvature="0" />
    </g>
    <g
       id="g50"
       transform="matrix(1.25,0,0,-1.25,288.86488,1025.895)">
      <path
         d="m 0,0 c -2.994,0 -5.264,2.029 -5.264,6.085 0,4.058 2.27,6.086 5.264,6.086 1.642,0 2.679,-0.435 3.912,-1.763 L 2.729,9.298 C 1.833,10.288 1.134,10.625 0,10.625 -1.161,10.625 -2.126,10.167 -2.754,9.273 -3.309,8.5 -3.528,7.582 -3.528,6.085 -3.528,4.588 -3.309,3.67 -2.754,2.898 -2.126,2.004 -1.161,1.545 0,1.545 c 1.134,0 1.833,0.363 2.729,1.353 L 3.912,1.763 C 2.679,0.435 1.642,0 0,0"
         style="fill:#258cd4;fill-opacity:1;fill-rule:nonzero;stroke:none"
         id="path52"
         inkscape:connector-curvature="0" />
    </g>
    <g
       id="g54"
       transform="matrix(1.25,0,0,-1.25,306.96513,1024.2049)">
      <path
         d="m 0,0 c -0.821,-0.82 -1.955,-1.352 -3.404,-1.352 -1.448,0 -2.585,0.532 -3.406,1.352 -1.205,1.232 -1.448,2.899 -1.448,4.733 0,1.836 0.243,3.502 1.448,4.734 0.821,0.821 1.958,1.352 3.406,1.352 1.449,0 2.583,-0.531 3.404,-1.352 C 1.208,8.235 1.449,6.569 1.449,4.733 1.449,2.899 1.208,1.232 0,0 m -1.23,8.405 c -0.556,0.554 -1.328,0.868 -2.174,0.868 -0.846,0 -1.595,-0.314 -2.15,-0.868 -0.869,-0.87 -0.965,-2.343 -0.965,-3.672 0,-1.327 0.096,-2.8 0.965,-3.67 0.555,-0.556 1.304,-0.87 2.15,-0.87 0.846,0 1.618,0.314 2.174,0.87 0.868,0.87 0.942,2.343 0.942,3.67 0,1.329 -0.074,2.802 -0.942,3.672"
         style="fill:#258cd4;fill-opacity:1;fill-rule:nonzero;stroke:none"
         id="path56"
         inkscape:connector-curvature="0" />
    </g>
    <g
       id="g58"
       transform="matrix(1.25,0,0,-1.25,332.49251,1025.7135)">
      <path
         d="m 0,0 0,7.317 c 0,2.101 -1.136,3.163 -2.922,3.163 -1.739,0 -2.97,-1.087 -2.97,-2.969 l 0,-7.511 -1.739,0 0,7.317 c 0,2.101 -1.136,3.163 -2.922,3.163 -1.786,0 -2.97,-1.087 -2.97,-3.163 l 0,-7.317 -1.739,0 0,11.882 1.739,0 0,-1.305 c 0.844,0.966 2.027,1.449 3.357,1.449 1.642,0 2.922,-0.676 3.646,-1.98 0.918,1.304 2.246,1.98 3.913,1.98 1.28,0 2.341,-0.411 3.066,-1.111 0.846,-0.821 1.28,-1.932 1.28,-3.308 L 1.739,0 0,0 Z"
         style="fill:#258cd4;fill-opacity:1;fill-rule:nonzero;stroke:none"
         id="path60"
         inkscape:connector-curvature="0" />
    </g>
    <g
       id="g62"
       transform="matrix(1.25,0,0,-1.25,349.92289,1024.5973)">
      <path
         d="m 0,0 c -0.628,-0.628 -1.689,-1.038 -2.898,-1.038 -1.304,0 -2.391,0.314 -3.356,1.545 l 0,-6.713 -1.739,0 0,17.195 1.739,0 0,-1.402 c 0.965,1.257 2.052,1.546 3.356,1.546 1.209,0 2.27,-0.411 2.898,-1.039 C 1.208,8.887 1.449,6.907 1.449,5.047 1.449,3.188 1.208,1.208 0,0 m -3.26,9.587 c -2.585,0 -2.994,-2.222 -2.994,-4.54 0,-2.318 0.409,-4.54 2.994,-4.54 2.583,0 2.97,2.222 2.97,4.54 0,2.318 -0.387,4.54 -2.97,4.54"
         style="fill:#258cd4;fill-opacity:1;fill-rule:nonzero;stroke:none"
         id="path64"
         inkscape:connector-curvature="0" />
    </g>
    <g
       id="g66"
       transform="matrix(1.25,0,0,-1.25,364.67426,1013.6989)">
      <path
         d="m 0,0 c -0.652,0.651 -1.136,0.868 -2.054,0.868 -1.739,0 -2.848,-1.375 -2.848,-3.186 l 0,-7.294 -1.739,0 0,11.882 1.739,0 0,-1.45 c 0.652,0.991 1.955,1.594 3.332,1.594 1.136,0 2.004,-0.266 2.85,-1.11 L 0,0 Z"
         style="fill:#258cd4;fill-opacity:1;fill-rule:nonzero;stroke:none"
         id="path68"
         inkscape:connector-curvature="0" />
    </g>
    <g
       id="g70"
       transform="matrix(1.25,0,0,-1.25,377.58351,1024.2049)">
      <path
         d="m 0,0 c -0.821,-0.82 -1.955,-1.352 -3.404,-1.352 -1.448,0 -2.585,0.532 -3.406,1.352 -1.205,1.232 -1.449,2.899 -1.449,4.733 0,1.836 0.244,3.502 1.449,4.734 0.821,0.821 1.958,1.352 3.406,1.352 1.449,0 2.583,-0.531 3.404,-1.352 C 1.208,8.235 1.449,6.569 1.449,4.733 1.449,2.899 1.208,1.232 0,0 m -1.23,8.405 c -0.556,0.554 -1.328,0.868 -2.174,0.868 -0.846,0 -1.595,-0.314 -2.15,-0.868 -0.869,-0.87 -0.966,-2.343 -0.966,-3.672 0,-1.327 0.097,-2.8 0.966,-3.67 0.555,-0.556 1.304,-0.87 2.15,-0.87 0.846,0 1.618,0.314 2.174,0.87 0.868,0.87 0.942,2.343 0.942,3.67 0,1.329 -0.074,2.802 -0.942,3.672"
         style="fill:#258cd4;fill-opacity:1;fill-rule:nonzero;stroke:none"
         id="path72"
         inkscape:connector-curvature="0" />
    </g>
    <g
       id="g74"
       transform="matrix(1.25,0,0,-1.25,403.11051,1025.7135)">
      <path
         d="m 0,0 0,7.317 c 0,2.101 -1.134,3.163 -2.92,3.163 -1.739,0 -2.972,-1.087 -2.972,-2.969 l 0,-7.511 -1.739,0 0,7.317 c 0,2.101 -1.133,3.163 -2.92,3.163 -1.788,0 -2.971,-1.087 -2.971,-3.163 l 0,-7.317 -1.74,0 0,11.882 1.74,0 0,-1.305 c 0.845,0.966 2.029,1.449 3.356,1.449 1.642,0 2.922,-0.676 3.647,-1.98 0.917,1.304 2.245,1.98 3.912,1.98 1.28,0 2.342,-0.411 3.066,-1.111 0.846,-0.821 1.28,-1.932 1.28,-3.308 L 1.739,0 0,0 Z"
         style="fill:#258cd4;fill-opacity:1;fill-rule:nonzero;stroke:none"
         id="path76"
         inkscape:connector-curvature="0" />
    </g>
    <path
       d="m 410.42876,1004.1907 2.44625,0 0,2.445 -2.44625,0 0,-2.445 z m 0.12125,6.67 2.17375,0 0,14.8524 -2.17375,0 0,-14.8524 z"
       style="fill:#258cd4;fill-opacity:1;fill-rule:nonzero;stroke:none"
       id="path78"
       inkscape:connector-curvature="0" />
    <g
       id="g80"
       transform="matrix(1.25,0,0,-1.25,422.86051,1025.895)">
      <path
         d="m 0,0 c -2.004,0 -3.575,0.459 -4.877,1.714 l 1.158,1.16 c 0.943,-0.99 2.223,-1.377 3.694,-1.377 1.958,0 3.166,0.701 3.166,2.101 0,1.039 -0.606,1.618 -1.982,1.739 l -1.955,0.169 c -2.32,0.194 -3.55,1.232 -3.55,3.188 0,2.173 1.836,3.477 4.371,3.477 1.689,0 3.213,-0.411 4.274,-1.279 L 3.163,9.757 C 2.32,10.408 1.233,10.698 0,10.698 c -1.739,0 -2.657,-0.749 -2.657,-1.956 0,-1.014 0.581,-1.618 2.079,-1.739 L 1.33,6.834 C 3.406,6.641 4.83,5.845 4.83,3.623 4.83,1.328 2.875,0 0,0"
         style="fill:#258cd4;fill-opacity:1;fill-rule:nonzero;stroke:none"
         id="path82"
         inkscape:connector-curvature="0" />
    </g>
    <g
       id="g84"
       transform="matrix(1.25,0,0,-1.25,437.33901,1025.895)">
      <path
         d="m 0,0 c -2.004,0 -3.575,0.459 -4.877,1.714 l 1.158,1.16 c 0.943,-0.99 2.223,-1.377 3.694,-1.377 1.958,0 3.166,0.701 3.166,2.101 0,1.039 -0.606,1.618 -1.983,1.739 l -1.954,0.169 c -2.32,0.194 -3.55,1.232 -3.55,3.188 0,2.173 1.836,3.477 4.371,3.477 1.689,0 3.213,-0.411 4.274,-1.279 L 3.163,9.757 C 2.32,10.408 1.233,10.698 0,10.698 c -1.739,0 -2.657,-0.749 -2.657,-1.956 0,-1.014 0.581,-1.618 2.079,-1.739 L 1.33,6.834 C 3.406,6.641 4.83,5.845 4.83,3.623 4.83,1.328 2.875,0 0,0"
         style="fill:#258cd4;fill-opacity:1;fill-rule:nonzero;stroke:none"
         id="path86"
         inkscape:connector-curvature="0" />
    </g>
    <g
       id="g88"
       transform="matrix(1.25,0,0,-1.25,457.16051,1024.2049)">
      <path
         d="m 0,0 c -0.821,-0.82 -1.955,-1.352 -3.404,-1.352 -1.449,0 -2.585,0.532 -3.406,1.352 -1.205,1.232 -1.449,2.899 -1.449,4.733 0,1.836 0.244,3.502 1.449,4.734 0.821,0.821 1.957,1.352 3.406,1.352 1.449,0 2.583,-0.531 3.404,-1.352 C 1.208,8.235 1.449,6.569 1.449,4.733 1.449,2.899 1.208,1.232 0,0 m -1.23,8.405 c -0.556,0.554 -1.33,0.868 -2.174,0.868 -0.846,0 -1.595,-0.314 -2.15,-0.868 -0.869,-0.87 -0.966,-2.343 -0.966,-3.672 0,-1.327 0.097,-2.8 0.966,-3.67 0.555,-0.556 1.304,-0.87 2.15,-0.87 0.844,0 1.618,0.314 2.174,0.87 0.868,0.87 0.94,2.343 0.94,3.67 0,1.329 -0.072,2.802 -0.94,3.672"
         style="fill:#258cd4;fill-opacity:1;fill-rule:nonzero;stroke:none"
         id="path90"
         inkscape:connector-curvature="0" />
    </g>
    <g
       id="g92"
       transform="matrix(1.25,0,0,-1.25,475.80026,1025.895)">
      <path
         d="m 0,0 c -2.004,0 -3.575,0.459 -4.877,1.714 l 1.158,1.16 c 0.94,-0.99 2.221,-1.377 3.694,-1.377 1.957,0 3.163,0.701 3.163,2.101 0,1.039 -0.603,1.618 -1.98,1.739 l -1.954,0.169 c -2.32,0.194 -3.55,1.232 -3.55,3.188 0,2.173 1.836,3.477 4.371,3.477 1.689,0 3.21,-0.411 4.274,-1.279 L 3.163,9.757 C 2.317,10.408 1.23,10.698 0,10.698 c -1.739,0 -2.657,-0.749 -2.657,-1.956 0,-1.014 0.581,-1.618 2.076,-1.739 L 1.327,6.834 C 3.404,6.641 4.83,5.845 4.83,3.623 4.83,1.328 2.873,0 0,0"
         style="fill:#258cd4;fill-opacity:1;fill-rule:nonzero;stroke:none"
         id="path94"
         inkscape:connector-curvature="0" />
    </g>
    <g
       id="g96"
       transform="matrix(1.25,0,0,-1.25,495.62176,1024.2049)">
      <path
         d="m 0,0 c -0.821,-0.82 -1.955,-1.352 -3.404,-1.352 -1.449,0 -2.585,0.532 -3.406,1.352 -1.208,1.232 -1.449,2.899 -1.449,4.733 0,1.836 0.241,3.502 1.449,4.734 0.821,0.821 1.957,1.352 3.406,1.352 1.449,0 2.583,-0.531 3.404,-1.352 C 1.208,8.235 1.449,6.569 1.449,4.733 1.449,2.899 1.208,1.232 0,0 M -1.23,8.405 C -1.786,8.959 -2.56,9.273 -3.404,9.273 -4.25,9.273 -4.999,8.959 -5.555,8.405 -6.423,7.535 -6.52,6.062 -6.52,4.733 c 0,-1.327 0.097,-2.8 0.965,-3.67 0.556,-0.556 1.305,-0.87 2.151,-0.87 0.844,0 1.618,0.314 2.174,0.87 0.868,0.87 0.94,2.343 0.94,3.67 0,1.329 -0.072,2.802 -0.94,3.672 m -1.764,4.732 -1.593,0 2.124,3.695 2.076,0 -2.607,-3.695 z"
         style="fill:#258cd4;fill-opacity:1;fill-rule:nonzero;stroke:none"
         id="path98"
         inkscape:connector-curvature="0" />
    </g>
    <g
       id="g100"
       transform="matrix(1.25,0,0,-1.25,505.78351,1025.7135)">
      <path
         d="m 0,0 c -2.076,0 -3.017,1.352 -3.017,3.163 l 0,14.031 1.739,0 0,-13.958 c 0,-1.16 0.385,-1.739 1.593,-1.739 l 0.943,0 L 1.258,0 0,0 Z"
         style="fill:#258cd4;fill-opacity:1;fill-rule:nonzero;stroke:none"
         id="path102"
         inkscape:connector-curvature="0" />
    </g>
    <path
       d="m 510.91001,1004.1907 2.44625,0 0,2.445 -2.44625,0 0,-2.445 z m 0.12,6.67 2.17375,0 0,14.8524 -2.17375,0 0,-14.8524 z"
       style="fill:#258cd4;fill-opacity:1;fill-rule:nonzero;stroke:none"
       id="path104"
       inkscape:connector-curvature="0" />
    <g
       id="g106"
       transform="matrix(1.25,0,0,-1.25,527.53676,1025.7135)">
      <path
         d="m 0,0 0,1.425 c -0.965,-1.256 -2.076,-1.57 -3.381,-1.57 -1.208,0 -2.27,0.411 -2.898,1.038 -1.208,1.208 -1.449,3.188 -1.449,5.047 0,1.86 0.241,3.84 1.449,5.047 0.628,0.628 1.69,1.039 2.898,1.039 1.305,0 2.391,-0.289 3.356,-1.521 l 0,6.689 1.739,0 L 1.714,0 0,0 Z m -2.994,10.48 c -2.585,0 -2.995,-2.222 -2.995,-4.54 0,-2.318 0.41,-4.54 2.995,-4.54 2.585,0 2.969,2.222 2.969,4.54 0,2.318 -0.384,4.54 -2.969,4.54"
         style="fill:#258cd4;fill-opacity:1;fill-rule:nonzero;stroke:none"
         id="path108"
         inkscape:connector-curvature="0" />
    </g>
    <g
       id="g110"
       transform="matrix(1.25,0,0,-1.25,544.64151,1024.2049)">
      <path
         d="m 0,0 c -0.821,-0.82 -1.955,-1.352 -3.404,-1.352 -1.448,0 -2.585,0.532 -3.406,1.352 -1.208,1.232 -1.448,2.899 -1.448,4.733 0,1.836 0.24,3.502 1.448,4.734 0.821,0.821 1.958,1.352 3.406,1.352 1.449,0 2.583,-0.531 3.404,-1.352 C 1.208,8.235 1.449,6.569 1.449,4.733 1.449,2.899 1.208,1.232 0,0 m -1.23,8.405 c -0.556,0.554 -1.33,0.868 -2.174,0.868 -0.846,0 -1.595,-0.314 -2.15,-0.868 -0.869,-0.87 -0.965,-2.343 -0.965,-3.672 0,-1.327 0.096,-2.8 0.965,-3.67 0.555,-0.556 1.304,-0.87 2.15,-0.87 0.844,0 1.618,0.314 2.174,0.87 0.868,0.87 0.94,2.343 0.94,3.67 0,1.329 -0.072,2.802 -0.94,3.672"
         style="fill:#258cd4;fill-opacity:1;fill-rule:nonzero;stroke:none"
         id="path112"
         inkscape:connector-curvature="0" />
    </g>
  </g>
</svg>
